<svg id="burger" enable-background="new 0 0 300 300" height="512" viewBox="0 0 300 300" width="512" xmlns="http://www.w3.org/2000/svg"><path d="m268 154c0-3.621-1.418-6.895-3.683-9.383 2.262-2.184 3.683-5.232 3.683-8.617 0-5.27-3.436-9.706-8.168-11.315-1.736-31.539-27.865-56.685-59.832-56.685h-100c-31.967 0-58.096 25.146-59.832 56.685-4.732 1.609-8.168 6.045-8.168 11.315 0 3.385 1.421 6.434 3.683 8.617-2.265 2.488-3.683 5.762-3.683 9.383 0 4.22 1.917 7.966 4.881 10.535-3 2.91-4.881 6.965-4.881 11.465 0 5.956 3.308 11.1 8.148 13.855 1.514 23.486 21.051 42.145 44.914 42.145h129.875c23.864 0 43.4-18.659 44.915-42.145 4.84-2.755 8.148-7.899 8.148-13.855 0-4.5-1.881-8.555-4.881-11.465 2.964-2.569 4.881-6.315 4.881-10.535zm-168-78h100c27.322 0 49.742 21.194 51.797 48h-203.594c2.055-26.806 24.475-48 51.797-48zm-56 56h212c2.207 0 4 1.795 4 4s-1.793 4-4 4h-212c-2.207 0-4-1.795-4-4s1.793-4 4-4zm170.938 92h-129.876c-18.717 0-34.194-13.956-36.675-32h23.613v7.572c0 6.062 4.305 11.336 10.016 12.266.656.107 1.312.16 1.965.16 2.848 0 5.605-.996 7.793-2.855 1.863-1.586 3.176-3.678 3.805-5.988 2.004.791 4.215 1.045 6.41.684 5.574-.906 9.809-5.955 10.004-11.838h139.621c-2.482 18.043-17.96 31.999-36.676 31.999zm40.909-41.03c-.868.035-1.635.369-2.275.871-.509.102-1.034.159-1.572.159h-144c-2.211 0-4 1.791-4 4v3.572c0 2.148-1.449 4.068-3.297 4.371-1.207.195-2.379-.121-3.293-.895-.894-.761-1.41-1.872-1.41-3.048 0-2.209-1.789-4-4-4s-4 1.791-4 4v8c0 1.176-.516 2.287-1.41 3.049-.914.773-2.086 1.084-3.289.895-1.852-.303-3.301-2.223-3.301-4.371v-11.573c0-2.209-1.789-4-4-4h-28c-.538 0-1.063-.057-1.571-.159-.64-.502-1.407-.836-2.275-.871-2.463-1.365-4.154-3.96-4.154-6.97 0-4.412 3.59-8 8-8h124.699l13.363 9.717c2.824 2.055 6.133 3.072 9.434 3.072 3.656 0 7.301-1.248 10.273-3.723l10.879-9.066h35.352c4.41 0 8 3.588 8 8 0 3.01-1.691 5.605-4.153 6.97zm-40.648-22.97c-.938 0-1.844.328-2.562.928l-11.988 9.994c-2.84 2.363-6.895 2.498-9.883.326l-14.414-10.482c-.684-.498-1.508-.766-2.352-.766h-128c-3.309 0-6-2.691-6-6s2.691-6 6-6h208c3.309 0 6 2.691 6 6s-2.691 6-6 6z"/><path d="m72.004 116c.762 0 1.531-.217 2.215-.672l12-8c1.84-1.225 2.336-3.709 1.109-5.547-1.227-1.84-3.707-2.342-5.547-1.109l-12 8c-1.84 1.225-2.336 3.709-1.109 5.547.769 1.156 2.039 1.781 3.332 1.781z"/><path d="m97.172 98.828c.781.781 1.805 1.172 2.828 1.172s2.047-.391 2.828-1.172c1.562-1.562 1.562-4.094 0-5.656l-8-8c-1.562-1.562-4.094-1.562-5.656 0s-1.562 4.094 0 5.656z"/><path d="m133.172 98.828c.781.781 1.805 1.172 2.828 1.172s2.047-.391 2.828-1.172c1.562-1.562 1.562-4.094 0-5.656l-8-8c-1.562-1.562-4.094-1.562-5.656 0s-1.562 4.094 0 5.656z"/><path d="m100.672 118.219c.77 1.156 2.039 1.781 3.332 1.781.762 0 1.531-.217 2.215-.672l12-8c1.84-1.225 2.336-3.709 1.109-5.547-1.227-1.836-3.707-2.338-5.547-1.109l-12 8c-1.84 1.224-2.336 3.709-1.109 5.547z"/><path d="m136.422 117.789c.703 1.402 2.113 2.211 3.582 2.211.602 0 1.211-.135 1.785-.422l16-8c1.977-.988 2.777-3.391 1.789-5.367-.992-1.977-3.387-2.775-5.367-1.789l-16 8c-1.977.988-2.777 3.39-1.789 5.367z"/><path d="m159.031 87.881 16 4c.324.082.652.119.973.119 1.793 0 3.422-1.213 3.875-3.029.539-2.145-.766-4.316-2.91-4.852l-16-4c-2.141-.549-4.316.77-4.848 2.91-.539 2.145.766 4.317 2.91 4.852z"/><path d="m172.422 109.789c.703 1.402 2.113 2.211 3.582 2.211.602 0 1.211-.135 1.785-.422l16-8c1.977-.988 2.777-3.391 1.789-5.367-.992-1.975-3.395-2.779-5.367-1.789l-16 8c-1.977.988-2.777 3.39-1.789 5.367z"/><path d="m213.781 119.328c.684.455 1.453.672 2.215.672 1.293 0 2.562-.625 3.332-1.781 1.227-1.838.73-4.322-1.109-5.547l-12-8c-1.848-1.229-4.324-.727-5.547 1.109-1.227 1.838-.73 4.322 1.109 5.547z"/><path d="m212.211 101.578c.574.287 1.184.422 1.785.422 1.469 0 2.879-.809 3.582-2.211l4-8c.988-1.977.188-4.379-1.789-5.367-1.973-.986-4.375-.188-5.367 1.789l-4 8c-.988 1.977-.188 4.379 1.789 5.367z"/></svg>